<?xml version="1.0" encoding="UTF-8"?>
<svg version="1.1" xmlns="http://www.w3.org/2000/svg" width="372" height="366">
<path d="M0 0 C34.31305733 30.43747786 56.94019296 73.42600138 59.8359375 119.515625 C61.8217178 166.71399443 48.22951582 212.33679688 16.20214844 247.77197266 C13.78329163 250.3892335 11.31162098 252.95202662 8.8359375 255.515625 C8.1965625 256.21816406 7.5571875 256.92070312 6.8984375 257.64453125 C-3.79790427 269.08102167 -17.51410453 278.0099489 -31.1640625 285.515625 C-31.76444336 285.85400391 -32.36482422 286.19238281 -32.98339844 286.54101562 C-71.52865244 308.06708914 -119.10590736 312.1470506 -161.36206055 300.54833984 C-163.63685236 299.89296788 -165.90206342 299.21380409 -168.1640625 298.515625 C-168.82647949 298.31130859 -169.48889648 298.10699219 -170.17138672 297.89648438 C-188.51870144 292.03650553 -206.05470533 282.39716406 -221.1640625 270.515625 C-222.07542969 269.8246875 -222.98679687 269.13375 -223.92578125 268.421875 C-259.73670399 240.40048144 -282.63368532 198.09553194 -288.4765625 153.203125 C-292.22233194 118.9649692 -286.46538244 85.33335857 -271.1640625 54.515625 C-270.84324707 53.85771973 -270.52243164 53.19981445 -270.19189453 52.52197266 C-265.42563836 42.82727689 -259.71687287 34.09178705 -253.1640625 25.515625 C-252.11992187 24.13310547 -252.11992187 24.13310547 -251.0546875 22.72265625 C-236.88968632 4.69689348 -219.79452403 -8.91191697 -200.1640625 -20.484375 C-199.56400391 -20.84273437 -198.96394531 -21.20109375 -198.34570312 -21.5703125 C-135.46538078 -58.69831637 -54.38944565 -45.61695441 0 0 Z M-195.1640625 6.515625 C-195.1640625 95.945625 -195.1640625 185.375625 -195.1640625 277.515625 C-161.8355923 279.68382309 -161.8355923 279.68382309 -129.1640625 276.515625 C-128.33917943 256.23800044 -128.02828104 236.00712838 -128.09539795 215.71484375 C-128.10592372 212.17318363 -128.11025581 208.63151524 -128.11523438 205.08984375 C-128.12572505 198.23175218 -128.14261676 191.37369091 -128.1640625 184.515625 C-126.87532227 184.5062793 -125.58658203 184.49693359 -124.25878906 184.48730469 C-119.3753274 184.44676135 -114.49245425 184.38084175 -109.609375 184.30810547 C-107.51505216 184.28026224 -105.42063138 184.25887017 -103.32617188 184.24462891 C-84.07250219 184.10604683 -66.4354263 182.45023435 -49.1640625 173.515625 C-48.0503125 172.95875 -46.9365625 172.401875 -45.7890625 171.828125 C-36.81410132 166.58593176 -25.05114539 156.33455834 -21.1640625 146.515625 C-21.1640625 145.525625 -21.1640625 144.535625 -21.1640625 143.515625 C-20.5040625 143.515625 -19.8440625 143.515625 -19.1640625 143.515625 C-18.21530036 141.12376187 -17.28025043 138.72778434 -16.3515625 136.328125 C-16.09052734 135.67392578 -15.82949219 135.01972656 -15.56054688 134.34570312 C-11.4288254 123.58282372 -9.66236192 112.81767778 -9.3515625 101.328125 C-9.31514648 100.15701172 -9.27873047 98.98589844 -9.24121094 97.77929688 C-8.73802706 75.6998309 -12.20452497 54.31252458 -26.1640625 36.515625 C-26.69773437 35.82855469 -27.23140625 35.14148438 -27.78125 34.43359375 C-32.49158638 28.72033886 -38.06389122 23.71192117 -44.1640625 19.515625 C-45.1540625 19.515625 -46.1440625 19.515625 -47.1640625 19.515625 C-47.1640625 18.855625 -47.1640625 18.195625 -47.1640625 17.515625 C-56.27980587 12.70914213 -65.97797116 9.28977905 -76.1640625 7.515625 C-77.1540625 7.845625 -78.1440625 8.175625 -79.1640625 8.515625 C-79.1640625 7.855625 -79.1640625 7.195625 -79.1640625 6.515625 C-90.66655424 5.68993864 -102.04676004 5.42560187 -113.57421875 5.63671875 C-114.98660444 5.65816098 -116.3989989 5.67903346 -117.81140137 5.69934082 C-122.9498965 5.77709317 -128.08822257 5.86571522 -133.2265625 5.953125 C-150.520625 6.2315625 -150.520625 6.2315625 -168.1640625 6.515625 C-168.1640625 47.435625 -168.1640625 88.355625 -168.1640625 130.515625 C-151.055625 130.5465625 -151.055625 130.5465625 -133.6015625 130.578125 C-130.01079834 130.587229 -126.42003418 130.59633301 -122.72045898 130.60571289 C-119.47931719 130.60905897 -119.47931719 130.60905897 -116.23817444 130.61106873 C-114.80347889 130.61259629 -113.36878457 130.61609659 -111.93409729 130.62120056 C-109.75088294 130.62857383 -107.56774651 130.6295292 -105.38452148 130.62915039 C-103.54252419 130.63248131 -103.54252419 130.63248131 -101.66331482 130.63587952 C-94.92053132 130.40415854 -89.31234796 129.1110078 -83.1640625 126.515625 C-82.1534375 126.103125 -81.1428125 125.690625 -80.1015625 125.265625 C-71.6900848 120.2545319 -67.94937041 113.56100117 -65.58203125 104.21875 C-63.82433222 92.8512011 -64.19323023 81.05536284 -70.67578125 71.22265625 C-71.16691406 70.65933594 -71.65804687 70.09601563 -72.1640625 69.515625 C-72.8240625 69.515625 -73.4840625 69.515625 -74.1640625 69.515625 C-74.4940625 68.525625 -74.8240625 67.535625 -75.1640625 66.515625 C-83.18965101 60.67883335 -90.95980265 60.08998968 -100.5390625 60.22265625 C-102.2866687 60.22902351 -102.2866687 60.22902351 -104.06958008 60.23551941 C-107.76798215 60.2522285 -111.46582684 60.28986739 -115.1640625 60.328125 C-117.68098168 60.34318183 -120.19790945 60.35686848 -122.71484375 60.36914062 C-128.86496759 60.39954664 -135.0138957 60.45828574 -141.1640625 60.515625 C-141.1640625 75.035625 -141.1640625 89.555625 -141.1640625 104.515625 C-136.5440625 104.185625 -131.9240625 103.855625 -127.1640625 103.515625 C-127.13712561 99.26558279 -127.11725375 95.01571083 -127.1015625 90.765625 C-127.08899414 88.95578125 -127.08899414 88.95578125 -127.07617188 87.109375 C-127.07133789 85.36914062 -127.07133789 85.36914062 -127.06640625 83.59375 C-127.05855103 81.99128418 -127.05855103 81.99128418 -127.05053711 80.35644531 C-127.14903242 77.89173265 -127.44840786 75.86317033 -128.1640625 73.515625 C-123.4140625 72.390625 -123.4140625 72.390625 -121.1640625 73.515625 C-119.39426521 73.57687315 -117.62211763 73.57565367 -115.8515625 73.54296875 C-114.77519531 73.53072266 -113.69882813 73.51847656 -112.58984375 73.50585938 C-110.33716779 73.47118306 -108.08455271 73.43224351 -105.83203125 73.38867188 C-89.33421419 73.22232378 -89.33421419 73.22232378 -83.2265625 77.640625 C-78.11230562 84.76958914 -77.06592158 91.89232897 -78.1640625 100.515625 C-79.23483668 103.45445976 -80.55845859 105.8061684 -82.1640625 108.515625 C-82.1640625 109.175625 -82.1640625 109.835625 -82.1640625 110.515625 C-89.0350493 114.23740952 -98.42857336 118.61641382 -106.1640625 116.515625 C-107.64391785 116.42745222 -109.12714016 116.38777481 -110.60961914 116.38623047 C-111.48054703 116.38307831 -112.35147491 116.37992615 -113.24879456 116.37667847 C-114.18118454 116.3787027 -115.11357452 116.38072693 -116.07421875 116.3828125 C-117.03806992 116.38185577 -118.00192108 116.38089905 -118.99497986 116.37991333 C-121.02993841 116.37923356 -123.06489914 116.3810737 -125.09985352 116.38525391 C-128.21831108 116.39061083 -131.336625 116.38529904 -134.45507812 116.37890625 C-136.43229199 116.37956695 -138.40950576 116.38084795 -140.38671875 116.3828125 C-141.32113297 116.38078827 -142.25554718 116.37876404 -143.21827698 116.37667847 C-144.0860527 116.37983063 -144.95382843 116.38298279 -145.84790039 116.38623047 C-146.61082901 116.38702606 -147.37375763 116.38782166 -148.1598053 116.38864136 C-150.37251785 116.4431048 -150.37251785 116.4431048 -153.1640625 117.515625 C-154.1540625 117.020625 -154.1540625 117.020625 -155.1640625 116.515625 C-155.1640625 84.835625 -155.1640625 53.155625 -155.1640625 20.515625 C-144.2946875 20.495 -133.4253125 20.474375 -122.2265625 20.453125 C-118.81062744 20.444021 -115.39469238 20.43491699 -111.87524414 20.42553711 C-109.14990274 20.42261487 -106.42456091 20.42006704 -103.69921875 20.41796875 C-102.65355995 20.41404869 -102.65355995 20.41404869 -101.58677673 20.41004944 C-86.59032747 20.35670192 -73.06439366 21.5790558 -59.2890625 27.890625 C-58.6707959 28.1705127 -58.0525293 28.45040039 -57.41552734 28.73876953 C-54.24300651 30.25427218 -51.5396518 31.92757391 -48.890625 34.2109375 C-46.39370789 36.70991245 -46.39370789 36.70991245 -43.4140625 37.015625 C-42.6715625 37.180625 -41.9290625 37.345625 -41.1640625 37.515625 C-40.2265625 39.578125 -40.2265625 39.578125 -39.1640625 42.515625 C-38.25713473 43.76751915 -37.31547733 44.99456174 -36.3515625 46.203125 C-31.40237939 52.64069325 -27.99273422 59.37626207 -26.62109375 67.41015625 C-26.20809742 69.61432848 -26.20809742 69.61432848 -25.15234375 71.95703125 C-21.30648991 81.91368843 -22.9744287 94.95851152 -23.1640625 105.515625 C-23.16921875 106.44246094 -23.174375 107.36929688 -23.1796875 108.32421875 C-23.45555932 114.00914871 -25.18107872 119.25727897 -26.9140625 124.640625 C-27.27395264 125.7699646 -27.27395264 125.7699646 -27.64111328 126.92211914 C-29.2595229 131.67978429 -31.32123869 135.65098499 -34.18457031 139.78466797 C-35.41030548 141.6193063 -35.41030548 141.6193063 -35.1640625 144.515625 C-35.8240625 144.515625 -36.4840625 144.515625 -37.1640625 144.515625 C-38.7987515 146.17011184 -38.7987515 146.17011184 -40.4765625 148.265625 C-51.53546731 161.18660414 -68.64577035 167.44137457 -85.1640625 169.515625 C-89.63073034 169.74882758 -94.0792729 169.72767102 -98.55078125 169.67578125 C-99.77440872 169.67057968 -100.99803619 169.66537811 -102.25874329 169.66001892 C-106.12314344 169.64236352 -109.98726584 169.61116967 -113.8515625 169.578125 C-117.7551062 169.550522 -121.65861442 169.52586193 -125.56221008 169.50694275 C-127.9816676 169.49466042 -130.40110486 169.47703258 -132.82048035 169.45362854 C-134.44401176 169.44383217 -134.44401176 169.44383217 -136.1003418 169.43383789 C-137.05676071 169.42558487 -138.01317963 169.41733185 -138.99858093 169.40882874 C-141.14396402 169.27172053 -141.14396402 169.27172053 -142.1640625 170.515625 C-142.25930155 173.40705651 -142.28959277 176.27454564 -142.27758789 179.16625977 C-142.27773392 180.07348785 -142.27787994 180.98071594 -142.2780304 181.91543579 C-142.27733091 184.92932485 -142.26953684 187.94315293 -142.26171875 190.95703125 C-142.2598547 193.04068467 -142.25843074 195.12433854 -142.25743103 197.20799255 C-142.25360484 202.70385946 -142.2437737 208.19970013 -142.23272705 213.69555664 C-142.2225151 219.29898727 -142.21793387 224.90242213 -142.21289062 230.50585938 C-142.20215152 241.509128 -142.18455391 252.51237021 -142.1640625 263.515625 C-155.0340625 263.515625 -167.9040625 263.515625 -181.1640625 263.515625 C-181.1640625 178.705625 -181.1640625 93.895625 -181.1640625 6.515625 C-183.84050207 5.62347848 -185.41790628 5.38022289 -188.1640625 5.390625 C-188.8446875 5.38804688 -189.5253125 5.38546875 -190.2265625 5.3828125 C-192.38281031 5.44931374 -192.38281031 5.44931374 -195.1640625 6.515625 Z M-141.1640625 33.515625 C-141.1640625 37.805625 -141.1640625 42.095625 -141.1640625 46.515625 C-139.56079102 46.53020752 -137.95751953 46.54479004 -136.30566406 46.55981445 C-130.31179391 46.61813727 -124.31828616 46.69536705 -118.32470703 46.77807617 C-115.73915524 46.81116633 -113.15353398 46.83924684 -110.56787109 46.86206055 C-106.83401095 46.8959 -103.10077847 46.94823066 -99.3671875 47.00390625 C-98.22606506 47.01029617 -97.08494263 47.0166861 -95.90924072 47.02326965 C-83.22262078 47.25151269 -72.71273631 49.56169519 -63.23046875 58.296875 C-52.474015 69.58536839 -49.4779441 85.63837339 -49.80859375 100.76953125 C-50.72599239 110.43750155 -53.4310142 122.78371408 -61.2265625 129.328125 C-62.680625 130.4109375 -62.680625 130.4109375 -64.1640625 131.515625 C-64.81761719 132.22912109 -64.81761719 132.22912109 -65.484375 132.95703125 C-67.75506669 135.06402191 -70.21037226 136.25579014 -72.9765625 137.640625 C-73.99363281 138.15882813 -75.01070313 138.67703125 -76.05859375 139.2109375 C-79.19582376 140.52896872 -81.80480682 141.04458546 -85.1640625 141.515625 C-86.37304199 141.85150635 -87.58202148 142.1873877 -88.82763672 142.53344727 C-96.01908642 144.14114125 -103.39723446 143.74086948 -110.72265625 143.67578125 C-112.31925594 143.66950097 -113.91586004 143.66426417 -115.51246643 143.66001892 C-119.68902921 143.64679602 -123.86544218 143.62238802 -128.04193115 143.59466553 C-134.75045742 143.55131453 -141.45902732 143.52185617 -148.16765022 143.4986248 C-150.50874872 143.48839662 -152.84972845 143.47135758 -155.19078064 143.45362854 C-156.61733902 143.44680433 -158.04389845 143.44019551 -159.47045898 143.43383789 C-160.71794418 143.42558487 -161.96542938 143.41733185 -163.25071716 143.40882874 C-166.10190277 143.31198352 -166.10190277 143.31198352 -168.1640625 144.515625 C-168.1640625 180.485625 -168.1640625 216.455625 -168.1640625 253.515625 C-164.2040625 253.515625 -160.2440625 253.515625 -156.1640625 253.515625 C-155.8340625 221.835625 -155.5040625 190.155625 -155.1640625 157.515625 C-126.1015625 157.640625 -126.1015625 157.640625 -117.02319336 157.69580078 C-114.60009947 157.70165195 -112.17700358 157.70674602 -109.75390625 157.7109375 C-108.53513794 157.72116943 -107.31636963 157.73140137 -106.06066895 157.74194336 C-94.56459757 157.74422773 -82.34241133 157.42274261 -71.8515625 152.265625 C-71.18697021 151.9547998 -70.52237793 151.64397461 -69.83764648 151.32373047 C-67.93066059 150.41599499 -66.04524766 149.47549842 -64.1640625 148.515625 C-63.20242187 148.02835937 -62.24078125 147.54109375 -61.25 147.0390625 C-50.89278342 141.29930471 -44.00894336 133.72514897 -40.1640625 122.515625 C-39.7721875 121.40058594 -39.3803125 120.28554687 -38.9765625 119.13671875 C-33.34001466 100.36779729 -33.68694355 78.22694784 -43.0625 60.80151367 C-50.82896937 46.98573838 -60.98511545 39.49248658 -76.0793457 34.9206543 C-82.78534357 33.13518385 -89.24218172 33.13603215 -96.14453125 33.22265625 C-97.43853348 33.22690109 -98.73253571 33.23114594 -100.06575012 33.23551941 C-103.46719506 33.2468464 -106.86824132 33.27620467 -110.26953125 33.30963135 C-113.75580455 33.34059819 -117.24214375 33.35408094 -120.72851562 33.36914062 C-127.54054254 33.40108956 -134.3522422 33.45375416 -141.1640625 33.515625 Z " fill="#FDC002" transform="translate(297.1640625,48.484375)"/>
<path d="M0 0 C2.31243792 -0.02685412 4.6249627 -0.04632841 6.9375 -0.0625 C8.22527344 -0.07410156 9.51304688 -0.08570313 10.83984375 -0.09765625 C14 0 14 0 15 1 C15.09644787 2.37613823 15.12371912 3.75719833 15.12304783 5.13671207 C15.12503888 6.03393579 15.12702993 6.9311595 15.12908131 7.85557181 C15.12471205 9.35116311 15.12471205 9.35116311 15.12025452 10.87696838 C15.12110894 11.92729577 15.12196337 12.97762315 15.12284368 14.05977863 C15.12450162 17.60831008 15.118972 21.15679511 15.11352539 24.70532227 C15.11324356 27.23745726 15.11340117 29.76959234 15.1139679 32.30172729 C15.11419622 37.76818504 15.11134473 43.23462761 15.10573006 48.70108223 C15.09761737 56.60474301 15.09500007 64.50839802 15.09374207 72.41206252 C15.09155118 85.23394013 15.08489011 98.05581139 15.07543945 110.87768555 C15.06626628 123.33601856 15.05918498 135.79434984 15.05493164 148.25268555 C15.05466892 149.02008069 15.05440619 149.78747583 15.05413551 150.57812537 C15.05283051 154.42776103 15.05156679 158.27739671 15.05032361 162.1270324 C15.03994986 194.08469307 15.02205615 226.0423452 15 258 C26.88 258 38.76 258 51 258 C51 227.31 51 196.62 51 165 C53.72478152 163.63760924 55.86840855 163.88030042 58.91845703 163.88647461 C60.78016037 163.88658791 60.78016037 163.88658791 62.67947388 163.88670349 C64.03892049 163.8918105 65.39836669 163.8970265 66.7578125 163.90234375 C68.14500884 163.90420858 69.53220584 163.90563218 70.91940308 163.90663147 C74.57234512 163.91045152 78.22524748 163.92027745 81.87817383 163.93133545 C85.60497501 163.94156056 89.33178259 163.94613145 93.05859375 163.95117188 C100.37241394 163.96190017 107.68620141 163.97897046 115 164 C111.57312252 166.28458499 110.36059689 166.24451452 106.33520508 166.22705078 C105.15800903 166.22680908 103.98081299 166.22656738 102.76794434 166.22631836 C101.53096802 166.21608643 100.2939917 166.20585449 99.01953125 166.1953125 C97.88237671 166.19329834 96.74522217 166.19128418 95.5736084 166.18920898 C91.31986465 166.17873353 87.06617834 166.15081102 82.8125 166.125 C73.304375 166.08375 63.79625 166.0425 54 166 C54 196.69 54 227.38 54 259 C50.47608084 260.17463972 47.29459173 260.14350746 43.62890625 260.1328125 C42.9101683 260.13376923 42.19143036 260.13472595 41.45091248 260.13571167 C39.93203646 260.13639158 38.41315752 260.13455044 36.89428711 260.13037109 C34.57464023 260.12502796 32.25518767 260.13031838 29.93554688 260.13671875 C28.45833291 260.13605778 26.98111906 260.13477623 25.50390625 260.1328125 C24.81212784 260.13483673 24.12034943 260.13686096 23.40760803 260.13894653 C20.0215853 260.12254375 17.32010084 259.83002521 14 259 C13.67 174.19 13.34 89.38 13 2 C8.71 2 4.42 2 0 2 C0 1.34 0 0.68 0 0 Z " fill="#EDBD34" transform="translate(102,53)"/>
<path d="M0 0 C14.664375 -0.04125 29.32875 -0.0825 44.4375 -0.125 C49.05419678 -0.14320801 53.67089355 -0.16141602 58.42749023 -0.18017578 C64.09973145 -0.18920898 64.09973145 -0.18920898 66.76185608 -0.19088745 C68.60647041 -0.19394258 70.45108094 -0.20094324 72.29566956 -0.21115112 C75.10270034 -0.22589787 77.90948873 -0.22780841 80.71655273 -0.22705078 C81.9327072 -0.23784511 81.9327072 -0.23784511 83.17343044 -0.2488575 C88.67400116 -0.22912787 93.6818 0.60917514 99 2 C99 2.66 99 3.32 99 4 C96.36 4 93.72 4 91 4 C91 3.34 91 2.68 91 2 C61.63 2 32.26 2 2 2 C2 42.92 2 83.84 2 126 C1.34 126 0.68 126 0 126 C0 84.42 0 42.84 0 0 Z " fill="#F2B43C" transform="translate(127,53)"/>
<path d="M0 0 C1.75539345 0.00333092 1.75539345 0.00333092 3.54624939 0.00672913 C4.51207191 0.00651009 4.51207191 0.00651009 5.49740601 0.00628662 C7.63473327 0.00698567 9.77197438 0.01477761 11.9092865 0.02259827 C13.3875931 0.02446248 14.86590032 0.02588637 16.34420776 0.02688599 C20.24211827 0.03071093 24.13999174 0.040541 28.03788757 0.05158997 C32.01259358 0.0618046 35.98730554 0.06638372 39.96202087 0.07142639 C47.76607425 0.0821633 55.57009707 0.09923942 63.37413025 0.12025452 C63.37413025 0.45025452 63.37413025 0.78025452 63.37413025 1.12025452 C41.92413025 1.12025452 20.47413025 1.12025452 -1.62586975 1.12025452 C-1.62586975 32.47025452 -1.62586975 63.82025452 -1.62586975 96.12025452 C-0.30586975 96.78025452 1.01413025 97.44025452 2.37413025 98.12025452 C0.88913025 98.61525452 0.88913025 98.61525452 -0.62586975 99.12025452 C-1.61586975 98.46025452 -2.60586975 97.80025452 -3.62586975 97.12025452 C-3.91720566 94.04565912 -4.01420577 91.17292839 -3.98231506 88.09657288 C-3.98435944 87.16154434 -3.98640381 86.22651581 -3.98851013 85.26315308 C-3.99152666 82.1619381 -3.97301611 79.06125033 -3.95399475 75.96009827 C-3.9509388 73.81300997 -3.94906143 71.66591969 -3.94831848 69.51882935 C-3.94371006 65.01537003 -3.92926253 60.51208899 -3.90711975 56.00868225 C-3.87881999 50.22219509 -3.86790723 44.43584845 -3.86343765 38.64929867 C-3.85929039 34.21509379 -3.84947901 29.78091763 -3.83756256 25.34672737 C-3.8318464 23.21237482 -3.82709219 21.07801947 -3.82329559 18.94366264 C-3.81645699 15.96723904 -3.80283655 12.99092922 -3.78700256 10.01454163 C-3.7858847 9.12360809 -3.78476685 8.23267456 -3.78361511 7.31474304 C-3.7330199 0.17095764 -3.7330199 0.17095764 0 0 Z " fill="#ECBD34" transform="translate(144.62586975097656,67.87974548339844)"/>
<path d="M0 0 C1.65 0.33 3.3 0.66 5 1 C-0.15011567 6.15011567 -9.17629763 5.21604537 -16.01974392 5.23228264 C-18.36870454 5.22642708 -20.71749277 5.21104861 -23.06640625 5.1953125 C-24.71263964 5.1915763 -26.35887527 5.1887322 -28.00511169 5.18673706 C-32.31066162 5.17914833 -36.61607382 5.15954146 -40.92156982 5.1373291 C-45.32594948 5.11676739 -49.73035167 5.10771339 -54.13476562 5.09765625 C-62.75657319 5.07629048 -71.3782694 5.04221294 -80 5 C-79.67 4.34 -79.34 3.68 -79 3 C-53.26 3 -27.52 3 -1 3 C-0.67 2.01 -0.34 1.02 0 0 Z " fill="#F7B547" transform="translate(209,188)"/>
<path d="M0 0 C1.47906892 -0.02689216 2.95827483 -0.04634621 4.4375 -0.0625 C5.26121094 -0.07410156 6.08492187 -0.08570313 6.93359375 -0.09765625 C9 0 9 0 10 1 C11.84891946 1.23363881 13.70488031 1.41303635 15.5625 1.5625 C16.57441406 1.64628906 17.58632812 1.73007812 18.62890625 1.81640625 C19.80259766 1.90728516 19.80259766 1.90728516 21 2 C21 2.66 21 3.32 21 4 C27.10569107 3.88207974 33.21120819 3.75785627 39.31665039 3.62768555 C41.39539057 3.58426666 43.47416803 3.54259688 45.55297852 3.50268555 C48.53413145 3.44515079 51.51509549 3.38140881 54.49609375 3.31640625 C55.89921059 3.29133751 55.89921059 3.29133751 57.33067322 3.26576233 C58.19149002 3.24581711 59.05230682 3.22587189 59.93920898 3.20532227 C61.08171364 3.18200584 61.08171364 3.18200584 62.24729919 3.15821838 C64.02735006 3.18620671 64.02735006 3.18620671 65 2 C67.01964199 1.92755947 69.04167124 1.91622812 71.0625 1.9375 C72.16722656 1.94652344 73.27195312 1.95554687 74.41015625 1.96484375 C75.26480469 1.97644531 76.11945313 1.98804688 77 2 C77 1.34 77 0.68 77 0 C80.3 0 83.6 0 87 0 C87 0.33 87 0.66 87 1 C83.70979189 1.65341008 80.41760467 2.29628521 77.125 2.9375 C76.2071875 3.11990234 75.289375 3.30230469 74.34375 3.49023438 C49.58700371 8.28467468 24.45231725 6.68183598 0 1 C0 0.67 0 0.34 0 0 Z " fill="#F8BC43" transform="translate(139,349)"/>
<path d="M0 0 C1.16781006 0.00523682 2.33562012 0.01047363 3.53881836 0.01586914 C4.79887695 0.0190918 6.05893555 0.02231445 7.35717773 0.02563477 C8.6976732 0.03399136 10.03816799 0.04245632 11.37866211 0.05102539 C12.72306153 0.05603879 14.06746271 0.06060197 15.41186523 0.06469727 C18.71334151 0.07653051 22.01473014 0.09301568 25.31616211 0.11352539 C25.31616211 0.77352539 25.31616211 1.43352539 25.31616211 2.11352539 C22.89998497 2.31282934 20.48393129 2.49798966 18.06616211 2.67602539 C17.40358398 2.73209961 16.74100586 2.78817383 16.05834961 2.84594727 C9.5568889 3.30595628 4.04948154 2.67463534 -2.68383789 2.11352539 C-2.68383789 33.46352539 -2.68383789 64.81352539 -2.68383789 97.11352539 C-3.01383789 97.11352539 -3.34383789 97.11352539 -3.68383789 97.11352539 C-3.70695932 84.61395439 -3.72475195 72.11438844 -3.73565006 59.61480045 C-3.74087933 53.81138926 -3.74797776 48.00799264 -3.75927734 42.20458984 C-3.77010467 36.60901686 -3.7761144 31.01345794 -3.77871513 25.41787529 C-3.78056966 23.27793595 -3.7841908 21.13799743 -3.78956795 18.99806404 C-3.79677633 16.01187573 -3.79782892 13.02574632 -3.79736328 10.03955078 C-3.80095856 9.14547516 -3.80455383 8.25139954 -3.80825806 7.33023071 C-3.79607728 0.16057272 -3.79607728 0.16057272 0 0 Z " fill="#E9C053" transform="translate(144.683837890625,204.886474609375)"/>
<path d="M0 0 C0.99 0 1.98 0 3 0 C3.04125 0.5775 3.0825 1.155 3.125 1.75 C4.43400256 5.11600658 7.00937984 6.1308624 10 8 C10.495 8.99 10.495 8.99 11 10 C7.85976269 9.004315 4.97767834 7.98832055 2.05249023 6.45776367 C-3.18291731 4.20693684 -8.66692606 4.52019964 -14.27734375 4.48828125 C-15.4438295 4.47033005 -16.61031525 4.45237885 -17.81214905 4.43388367 C-21.52056312 4.37990621 -25.22884938 4.34592426 -28.9375 4.3125 C-31.45900211 4.27931595 -33.98048738 4.24482529 -36.50195312 4.20898438 C-42.66785412 4.12418677 -48.83377191 4.05578369 -55 4 C-55 3.34 -55 2.68 -55 2 C-37.18 2 -19.36 2 -1 2 C-0.67 1.34 -0.34 0.68 0 0 Z " fill="#EEBF32" transform="translate(211,105)"/>
<path d="M0 0 C3 1 3 1 5 3 C5.99 3 6.98 3 8 3 C7.34 4.65 6.68 6.3 6 8 C5.34 8 4.68 8 4 8 C4.33 9.051875 4.66 10.10375 5 11.1875 C5.83966782 14.38873357 6.19750904 16.7411008 6 20 C4.91829146 17.85153741 3.85499638 15.69707165 2.81640625 13.52734375 C2.40261719 12.67269531 1.98882812 11.81804687 1.5625 10.9375 C1.15128906 10.08027344 0.74007812 9.22304687 0.31640625 8.33984375 C-0.92126315 6.13995066 -2.12569358 4.66665731 -4 3 C-2 2 -2 2 0 2 C0 1.34 0 0.68 0 0 Z " fill="#F4BF16" transform="translate(226,113)"/>
<path d="M0 0 C0.33 0 0.66 0 1 0 C1 14.52 1 29.04 1 44 C3.64 43.67 6.28 43.34 9 43 C7.875 44.5 7.875 44.5 6 46 C2.875 46.25 2.875 46.25 0 46 C-1 45 -1 45 -1.08229065 43.17137146 C-1.06230515 42.37417191 -1.04231964 41.57697235 -1.02172852 40.75561523 C-0.99158409 39.40432777 -0.99158409 39.40432777 -0.96083069 38.02574158 C-0.92027809 36.5570034 -0.92027809 36.5570034 -0.87890625 35.05859375 C-0.84348976 33.56248314 -0.84348976 33.56248314 -0.80735779 32.03614807 C-0.73051123 28.83646138 -0.64657771 25.63700408 -0.5625 22.4375 C-0.50930031 20.27409993 -0.4565598 18.11068852 -0.40429688 15.94726562 C-0.27486789 10.63136711 -0.13961307 5.31564026 0 0 Z " fill="#EFBD32" transform="translate(155,109)"/>
<path d="M0 0 C0 0.33 0 0.66 0 1 C-6.11542301 1.88886962 -12.07370035 2.18291818 -18.25 2.1875 C-19.13429687 2.19974609 -20.01859375 2.21199219 -20.9296875 2.22460938 C-22.20972656 2.22750977 -22.20972656 2.22750977 -23.515625 2.23046875 C-24.28165039 2.23457764 -25.04767578 2.23868652 -25.83691406 2.24291992 C-28.26554597 1.97017853 -29.89269073 1.20772395 -32 0 C-31.35973877 -0.02505615 -30.71947754 -0.0501123 -30.05981445 -0.07592773 C-27.14386274 -0.1923546 -24.2281971 -0.31486867 -21.3125 -0.4375 C-20.30509766 -0.47681641 -19.29769531 -0.51613281 -18.25976562 -0.55664062 C-17.28330078 -0.59853516 -16.30683594 -0.64042969 -15.30078125 -0.68359375 C-14.40528564 -0.72025146 -13.50979004 -0.75690918 -12.5871582 -0.79467773 C-9.97109842 -0.94378461 -9.97109842 -0.94378461 -7.34448242 -1.57836914 C-4.34463669 -2.1178603 -2.69663712 -1.30979517 0 0 Z " fill="#FCD20A" transform="translate(178,164)"/>
<path d="M0 0 C-0.49230769 7.50769231 -0.49230769 7.50769231 -3.0625 10 C-4.0215625 10.495 -4.0215625 10.495 -5 11 C-5.268125 10.360625 -5.53625 9.72125 -5.8125 9.0625 C-6.88667752 6.66868314 -6.88667752 6.66868314 -10 6 C-10 5.34 -10 4.68 -10 4 C-9.34 4 -8.68 4 -8 4 C-8 3.34 -8 2.68 -8 2 C-7.34 2 -6.68 2 -6 2 C-6 1.34 -6 0.68 -6 0 C-3.50907189 -1.24546405 -2.58919267 -0.7767578 0 0 Z " fill="#FBC003" transform="translate(249,84)"/>
<path d="M0 0 C0.99 0 1.98 0 3 0 C2 3 2 3 0.37353516 3.99902344 C-0.31434082 4.28293945 -1.0022168 4.56685547 -1.7109375 4.859375 C-2.46117187 5.17003906 -3.21140625 5.48070312 -3.984375 5.80078125 C-4.77328125 6.11402344 -5.5621875 6.42726563 -6.375 6.75 C-7.15617188 7.07871094 -7.93734375 7.40742188 -8.7421875 7.74609375 C-14.61354368 10.12881877 -14.61354368 10.12881877 -18 9 C-16.68 8.34 -15.36 7.68 -14 7 C-14.33 5.68 -14.66 4.36 -15 3 C-10.125 3.875 -10.125 3.875 -9 5 C-8.67 4.34 -8.34 3.68 -8 3 C-5.35139573 2.40644386 -2.70802678 2.25790731 0 2 C0 1.34 0 0.68 0 0 Z " fill="#F7C623" transform="translate(257,335)"/>
<path d="M0 0 C0.33 0 0.66 0 1 0 C1 5.28 1 10.56 1 16 C0.34 16 -0.32 16 -1 16 C-1 16.99 -1 17.98 -1 19 C-1.66 19.33 -2.32 19.66 -3 20 C-3.83177624 21.81767131 -3.83177624 21.81767131 -4.5 23.9375 C-5.42402464 26.70455204 -5.89137369 27.89137369 -8 30 C-7.3609931 25.32591579 -6.11925027 21.13601783 -4.5625 16.6875 C-2.66401523 11.1713659 -1.10585322 5.73033031 0 0 Z " fill="#EFBD28" transform="translate(286,163)"/>
<path d="M0 0 C0.33 0.66 0.66 1.32 1 2 C0.67 2.66 0.34 3.32 0 4 C-14.85 3.505 -14.85 3.505 -30 3 C-30 2.34 -30 1.68 -30 1 C-29.23333008 1.00523682 -28.46666016 1.01047363 -27.67675781 1.01586914 C-24.20118022 1.03666364 -20.72561573 1.04966809 -17.25 1.0625 C-15.44015625 1.07506836 -15.44015625 1.07506836 -13.59375 1.08789062 C-12.43359375 1.09111328 -11.2734375 1.09433594 -10.078125 1.09765625 C-9.00981445 1.10289307 -7.94150391 1.10812988 -6.84082031 1.11352539 C-4.37610765 1.01503008 -2.34754533 0.71565464 0 0 Z " fill="#F1C434" transform="translate(168,324)"/>
<path d="M0 0 C0.33 0 0.66 0 1 0 C1.5349432 10.60970678 0.48897235 18.89132565 -3 29 C-3.33 29 -3.66 29 -4 29 C-4.05437607 27.41705218 -4.09296271 25.83355744 -4.125 24.25 C-4.14820313 23.36828125 -4.17140625 22.4865625 -4.1953125 21.578125 C-4 19 -4 19 -3.02734375 17.0859375 C-1.60221734 14.19233484 -1.60756065 11.58082426 -1.4375 8.375 C-1.09722222 2.19444444 -1.09722222 2.19444444 0 0 Z " fill="#F7BF2D" transform="translate(247,138)"/>
<path d="M0 0 C0 0.99 0 1.98 0 3 C-13.53 3 -27.06 3 -41 3 C-41 2.67 -41 2.34 -41 2 C-40.1028125 1.97494385 -39.205625 1.9498877 -38.28125 1.92407227 C-34.91900569 1.82833687 -31.55689888 1.72914371 -28.19482422 1.62768555 C-26.74597085 1.58465509 -25.2970771 1.54296107 -23.84814453 1.50268555 C-15.91437915 1.28123999 -7.87134135 0 0 0 Z " fill="#EAB92F" transform="translate(212,204)"/>
<path d="M0 0 C0.66 0.33 1.32 0.66 2 1 C-0.5 6 -0.5 6 -3 11 C-3.66 11 -4.32 11 -5 11 C-5.226875 11.5775 -5.45375 12.155 -5.6875 12.75 C-7.33038023 15.5663661 -9.39533227 17.08077114 -12 19 C-12 16.66666667 -12 14.33333333 -12 12 C-10.35 12 -8.7 12 -7 12 C-7.33 10.35 -7.66 8.7 -8 7 C-6.68 7 -5.36 7 -4 7 C-1.77810176 4.77810176 -1.07401108 2.91517292 0 0 Z " fill="#F2BF24" transform="translate(265,182)"/>
<path d="M0 0 C6.61791723 1.51660603 12.48219849 4.08879201 17 9.3125 C17.33 9.869375 17.66 10.42625 18 11 C16.35 11 14.7 11 13 11 C13 10.34 13 9.68 13 9 C12.34 8.67 11.68 8.34 11 8 C11 7.34 11 6.68 11 6 C10.01 6 9.02 6 8 6 C8 5.34 8 4.68 8 4 C7.4225 4.165 6.845 4.33 6.25 4.5 C4 5 4 5 0 5 C0 3.35 0 1.7 0 0 Z " fill="#EEBA2D" transform="translate(217,97)"/>
<path d="M0 0 C0.99 0.66 1.98 1.32 3 2 C3 2.66 3 3.32 3 4 C1.68 4 0.36 4 -1 4 C-1.33 13.57 -1.66 23.14 -2 33 C-3.32 32.67 -4.64 32.34 -6 32 C-5.01 32 -4.02 32 -3 32 C-3.33 22.1 -3.66 12.2 -4 2 C-2.68 1.34 -1.36 0.68 0 0 Z " fill="#F1BD2E" transform="translate(173,120)"/>
<path d="M0 0 C9.91463347 1.1633633 9.91463347 1.1633633 14 4.3125 C17.82278481 9.44936709 17.82278481 9.44936709 19 12 C18.5703125 14.15234375 18.5703125 14.15234375 18 16 C17.56300781 14.95199219 17.56300781 14.95199219 17.1171875 13.8828125 C14.70896033 8.19799401 14.70896033 8.19799401 10.125 4.375 C6.71262289 3.96551475 3.43349322 3.86266027 0 4 C0 2.68 0 1.36 0 0 Z " fill="#E7BE33" transform="translate(200,121)"/>
<path d="M0 0 C0.33 0.66 0.66 1.32 1 2 C0 5 0 5 -3 7 C-3.99 8.485 -3.99 8.485 -5 10 C-6.6635479 10.67441131 -8.33066942 11.3400321 -10 12 C-10.845625 12.721875 -11.69125 13.44375 -12.5625 14.1875 C-13.7690625 15.0846875 -13.7690625 15.0846875 -15 16 C-17.15234375 15.61328125 -17.15234375 15.61328125 -19 15 C-17.948125 14.38125 -17.948125 14.38125 -16.875 13.75 C-10.39870167 9.80790536 -5.0919016 5.61714074 0 0 Z " fill="#F0BD27" transform="translate(266,207)"/>
<path d="M0 0 C1.8671875 0.19140625 1.8671875 0.19140625 4 1 C5.1953125 3.21484375 5.1953125 3.21484375 6.125 5.9375 C7.44364343 9.8429411 7.44364343 9.8429411 10 13 C10.125 16.625 10.125 16.625 10 20 C7.77050304 17.77050304 7.20135411 16.18551121 6.125 13.25 C4.50303303 9.03044684 2.5798232 5.68546171 0 2 C0 1.34 0 0.68 0 0 Z " fill="#F5C02A" transform="translate(273,87)"/>
<path d="M0 0 C0.33 0 0.66 0 1 0 C0.8897609 3.72975606 0.75921587 7.45853583 0.625 11.1875 C0.5940625 12.24259766 0.563125 13.29769531 0.53125 14.38476562 C0.49257812 15.40634766 0.45390625 16.42792969 0.4140625 17.48046875 C0.36693115 18.88655396 0.36693115 18.88655396 0.31884766 20.32104492 C-0.02022831 23.16995808 -0.82257457 25.39520444 -2 28 C-2.33 28 -2.66 28 -3 28 C-2.54362211 18.53616378 -1.81847768 9.32190498 0 0 Z " fill="#F5CB38" transform="translate(11,146)"/>
<path d="M0 0 C8.58 0 17.16 0 26 0 C26 0.66 26 1.32 26 2 C16.87247617 2.74440282 8.12123495 3.25610227 -1 2 C-0.67 1.34 -0.34 0.68 0 0 Z " fill="#E3BA2E" transform="translate(144,205)"/>
<path d="M0 0 C0.33 0 0.66 0 1 0 C1.33 1.98 1.66 3.96 2 6 C1.01 6.495 1.01 6.495 0 7 C-0.65555119 9.52733235 -0.65555119 9.52733235 -1 12 C-1.66 12 -2.32 12 -3 12 C-3 11.34 -3 10.68 -3 10 C-4.65 11.32 -6.3 12.64 -8 14 C-8.66 13.67 -9.32 13.34 -10 13 C-9.52949219 12.56429687 -9.05898437 12.12859375 -8.57421875 11.6796875 C-4.7848786 8.05510127 -2.04329447 4.92794549 0 0 Z " fill="#F2BF1D" transform="translate(229,159)"/>
<path d="M0 0 C1.13583456 3.71727674 0.66670026 5.47051709 -1 9 C-1.66 9 -2.32 9 -3 9 C-3.061875 10.051875 -3.12375 11.10375 -3.1875 12.1875 C-4.13408616 16.6291735 -5.59156258 18.11593757 -9 21 C-6.76686274 13.55620912 -3.59727921 6.88023305 0 0 Z " fill="#F2C228" transform="translate(30,95)"/>
<path d="M0 0 C0.66 0 1.32 0 2 0 C2.09835521 5.13632784 2.06883137 10.24990637 1.6875 15.375 C1.62949219 16.16648438 1.57148438 16.95796875 1.51171875 17.7734375 C0.90037827 20.43346859 -0.24576073 21.9400622 -2 24 C-2.33 22.35 -2.66 20.7 -3 19 C-2.01 18.67 -1.02 18.34 0 18 C0 12.06 0 6.12 0 0 Z " fill="#F6BE2E" transform="translate(273,144)"/>
<path d="M0 0 C0.66 0 1.32 0 2 0 C2 0.99 2 1.98 2 3 C2.66 3.33 3.32 3.66 4 4 C6.39047894 6.39047894 8 8.54145481 8 12 C8.66 12 9.32 12 10 12 C10.33 13.98 10.66 15.96 11 18 C7.67140292 14.95124073 5.49564707 11.78089042 3.25 7.875 C2.63640625 6.82054687 2.0228125 5.76609375 1.390625 4.6796875 C0 2 0 2 0 0 Z " fill="#F4BC2A" transform="translate(29,262)"/>
<path d="M0 0 C-2.58535679 1.72357119 -4.03811614 2.44735018 -6.9375 3.1875 C-7.94103516 3.45626953 -7.94103516 3.45626953 -8.96484375 3.73046875 C-11.30651014 4.04059347 -12.72553839 3.61471935 -15 3 C-17.24707241 2.7801777 -19.49771238 2.59516013 -21.75 2.4375 C-22.92046875 2.35371094 -24.0909375 2.26992187 -25.296875 2.18359375 C-26.18890625 2.12300781 -27.0809375 2.06242188 -28 2 C-28 1.67 -28 1.34 -28 1 C-24.83350749 0.82991412 -21.6667838 0.66456601 -18.5 0.5 C-17.1696875 0.42845703 -17.1696875 0.42845703 -15.8125 0.35546875 C-10.53287287 0.08372324 -5.28655326 -0.04940704 0 0 Z " fill="#F5C226" transform="translate(206,163)"/>
<path d="M0 0 C0.33 0 0.66 0 1 0 C1 6.6 1 13.2 1 20 C2.32 20.66 3.64 21.32 5 22 C4.01 22.33 3.02 22.66 2 23 C1.01 22.34 0.02 21.68 -1 21 C-1.328125 19.00390625 -1.328125 19.00390625 -1.25 16.5625 C-1.22421875 15.67949219 -1.1984375 14.79648438 -1.171875 13.88671875 C-0.89553872 9.24552533 -0.49218744 4.6230463 0 0 Z " fill="#F0C62E" transform="translate(142,144)"/>
<path d="M0 0 C1.66666667 0.66666667 3.33333333 1.33333333 5 2 C6.36125 2.495 6.36125 2.495 7.75 3 C10 4 10 4 11 6 C12.97888961 6.72693904 14.97954558 7.39816251 17 8 C17 8.66 17 9.32 17 10 C17.66 10 18.32 10 19 10 C19 10.66 19 11.32 19 12 C15.43061069 10.65908452 12.21113509 9.07804969 8.9375 7.125 C8.10089844 6.63257813 7.26429687 6.14015625 6.40234375 5.6328125 C3.95481783 3.96929082 2.01954671 2.15480504 0 0 Z " fill="#F2C335" transform="translate(80,321)"/>
<path d="M0 0 C0.66 0.33 1.32 0.66 2 1 C1.67 1.78375 1.34 2.5675 1 3.375 C-0.11866511 5.84332497 -0.11866511 5.84332497 0 8 C-3.72908331 7.49800802 -7.36147686 6.95792977 -11 6 C-9.21385682 4.96953278 -7.42089982 3.95086764 -5.625 2.9375 C-4.62726563 2.36902344 -3.62953125 1.80054688 -2.6015625 1.21484375 C-1.74304688 0.81394531 -0.88453125 0.41304687 0 0 Z " fill="#F5C322" transform="translate(240,192)"/>
<path d="M0 0 C2.77407649 0.03298902 5.54005929 0.10009079 8.3125 0.1875 C9.09818359 0.19330078 9.88386719 0.19910156 10.69335938 0.20507812 C12.9064343 0.28983419 14.86321861 0.41239928 17 1 C19.04296875 3.55078125 19.04296875 3.55078125 20 6 C18.89140625 5.71125 17.7828125 5.4225 16.640625 5.125 C15.17714757 4.74974938 13.71360232 4.37476322 12.25 4 C11.52039063 3.80921875 10.79078125 3.6184375 10.0390625 3.421875 C6.55428354 2.53484036 3.61876278 2 0 2 C0 1.34 0 0.68 0 0 Z M18 1 C18.99 1.33 19.98 1.66 21 2 C20.01 2 19.02 2 18 2 C18 1.67 18 1.34 18 1 Z " fill="#EFC034" transform="translate(211,81)"/>
<path d="M0 0 C0.66 0 1.32 0 2 0 C1.5256902 4.2687882 -0.80716564 6.31511656 -4 9 C-6.8125 9.8125 -6.8125 9.8125 -9 10 C-8.34 8.35 -7.68 6.7 -7 5 C-6.01 5.33 -5.02 5.66 -4 6 C-4 5.34 -4 4.68 -4 4 C-3.01 3.67 -2.02 3.34 -1 3 C-0.67 2.01 -0.34 1.02 0 0 Z " fill="#F2BF24" transform="translate(215,153)"/>
<path d="M0 0 C0.33 0 0.66 0 1 0 C1 8.25 1 16.5 1 25 C0.01 25.33 -0.98 25.66 -2 26 C-1.34 17.42 -0.68 8.84 0 0 Z " fill="#F2BE30" transform="translate(232,133)"/>
<path d="M0 0 C0.33 0.99 0.66 1.98 1 3 C-4.75 6 -4.75 6 -7 6 C-7 6.99 -7 7.98 -7 9 C-9.3431213 8.74438677 -11.67843403 8.40729228 -14 8 C-14.33 7.34 -14.66 6.68 -15 6 C-10.07227969 4.23107476 -5.11365014 3.0681847 0 2 C0 1.34 0 0.68 0 0 Z " fill="#F3BC20" transform="translate(217,172)"/>
<path d="M0 0 C3.68069887 1.53643852 5.98775204 3.78150945 8.75 6.625 C9.54921875 7.44226562 10.3484375 8.25953125 11.171875 9.1015625 C12.07679688 10.04128906 12.07679688 10.04128906 13 11 C9.79604584 11 7.90600261 10.25664978 5 9 C5 7.68 5 6.36 5 5 C4.01 5 3.02 5 2 5 C1.34 3.35 0.68 1.7 0 0 Z " fill="#F4C32E" transform="translate(295,48)"/>
<path d="M0 0 C1.47522426 4.64695642 0.41179883 8.44005207 -1 13 C-2.625 16.0625 -2.625 16.0625 -4 18 C-5.72251754 13.9154674 -4.07280563 10.63026304 -2.5625 6.75 C-2.31951172 6.1003125 -2.07652344 5.450625 -1.82617188 4.78125 C-1.22714006 3.18383183 -0.61485679 1.59139406 0 0 Z " fill="#F3C838" transform="translate(20,116)"/>
<path d="M0 0 C0.66 0 1.32 0 2 0 C2 1.32 2 2.64 2 4 C2.66 4 3.32 4 4 4 C4 4.99 4 5.98 4 7 C4.66 7 5.32 7 6 7 C6.66 10.3 7.32 13.6 8 17 C4.93274044 13.93274044 3.91367167 11.89475011 2.3125 7.9375 C1.87550781 6.87402344 1.43851563 5.81054688 0.98828125 4.71484375 C0 2 0 2 0 0 Z " fill="#F0C330" transform="translate(21,245)"/>
<path d="M0 0 C0.66 0 1.32 0 2 0 C0.83348574 5.92863717 -0.75519358 11.38798394 -3 17 C-3.33 17 -3.66 17 -4 17 C-4 15.02 -4 13.04 -4 11 C-3.34 11 -2.68 11 -2 11 C-2 9.02 -2 7.04 -2 5 C-1.34 5 -0.68 5 0 5 C0 3.35 0 1.7 0 0 Z " fill="#F5CB35" transform="translate(347,231)"/>
<path d="M0 0 C0.99 0.33 1.98 0.66 3 1 C1.88200014 2.33920838 0.75538103 3.67122556 -0.375 5 C-1.00148437 5.7425 -1.62796875 6.485 -2.2734375 7.25 C-3.12808594 8.11625 -3.12808594 8.11625 -4 9 C-4.66 9 -5.32 9 -6 9 C-5.67 7.35 -5.34 5.7 -5 4 C-3.35 3.67 -1.7 3.34 0 3 C0 2.01 0 1.02 0 0 Z " fill="#F2C324" transform="translate(239,171)"/>
<path d="M0 0 C2.97 0 5.94 0 9 0 C9.12375 0.804375 9.2475 1.60875 9.375 2.4375 C9.58125 3.283125 9.7875 4.12875 10 5 C10.66 5.33 11.32 5.66 12 6 C12 6.66 12 7.32 12 8 C8.55570748 6.46920333 5.90483327 4.38345294 3 2 C2.01 1.34 1.02 0.68 0 0 Z " fill="#F1BD2B" transform="translate(250,67)"/>
<path d="M0 0 C0.33 0.99 0.66 1.98 1 3 C1.66 3 2.32 3 3 3 C3.33 3.99 3.66 4.98 4 6 C2.88625 6.474375 1.7725 6.94875 0.625 7.4375 C-1.26710994 8.25306463 -3.15712709 9.07856355 -5 10 C-3.33333333 6.66666667 -1.66666667 3.33333333 0 0 Z " fill="#EEBE20" transform="translate(276,193)"/>
<path d="M0 0 C0.33 0.66 0.66 1.32 1 2 C-0.21484375 4.6015625 -0.21484375 4.6015625 -1.9375 7.625 C-2.78634766 9.12933594 -2.78634766 9.12933594 -3.65234375 10.6640625 C-4.09707031 11.43492187 -4.54179687 12.20578125 -5 13 C-6.31223496 9.06329512 -5.24296256 6.87511856 -4 3 C-3.01 3 -2.02 3 -1 3 C-0.67 2.01 -0.34 1.02 0 0 Z " fill="#F2C12E" transform="translate(336,260)"/>
<path d="M0 0 C0 0.66 0 1.32 0 2 C-2.90600261 3.25664978 -4.79604584 4 -8 4 C-8 4.66 -8 5.32 -8 6 C-9.98 6 -11.96 6 -14 6 C-12.53706784 3.07413567 -10.59729902 2.94053412 -7.5625 1.875 C-6.57378906 1.52179688 -5.58507812 1.16859375 -4.56640625 0.8046875 C-2 0 -2 0 0 0 Z " fill="#F1BA29" transform="translate(229,199)"/>
<path d="M0 0 C0.33 0 0.66 0 1 0 C0.67 2.31 0.34 4.62 0 7 C-0.99 7 -1.98 7 -3 7 C-3 8.32 -3 9.64 -3 11 C-4.98 11.99 -4.98 11.99 -7 13 C-5.37621488 8.27626146 -2.89006982 4.05818166 0 0 Z " fill="#F5C12D" transform="translate(38,82)"/>
<path d="M0 0 C1.32 0.33 2.64 0.66 4 1 C4 1.66 4 2.32 4 3 C4.66 3.33 5.32 3.66 6 4 C5.01 5.485 5.01 5.485 4 7 C3.36707617 9.11280345 3.36707617 9.11280345 3 11 C2.49384702 9.73160474 1.99530901 8.46016898 1.5 7.1875 C1.2215625 6.47980469 0.943125 5.77210938 0.65625 5.04296875 C0 3 0 3 0 0 Z " fill="#F6C529" transform="translate(17,234)"/>
<path d="M0 0 C1.32 0.33 2.64 0.66 4 1 C2.73461631 1.84158536 1.46246221 2.67299748 0.1875 3.5 C-0.87404297 4.19609375 -0.87404297 4.19609375 -1.95703125 4.90625 C-4 6 -4 6 -7 6 C-7 5.34 -7 4.68 -7 4 C-6.34 4 -5.68 4 -5 4 C-4.67 3.01 -4.34 2.02 -4 1 C-2.68 1.33 -1.36 1.66 0 2 C0 1.34 0 0.68 0 0 Z " fill="#F0C42C" transform="translate(240,207)"/>
<path d="M0 0 C0.99 0.495 0.99 0.495 2 1 C2 2.32 2 3.64 2 5 C2.66 5 3.32 5 4 5 C4 7.97 4 10.94 4 14 C3.34 13.67 2.68 13.34 2 13 C1.3671875 10.8203125 1.3671875 10.8203125 0.875 8.125 C0.70742188 7.24070312 0.53984375 6.35640625 0.3671875 5.4453125 C0 3 0 3 0 0 Z " fill="#EEC02B" transform="translate(257,115)"/>
<path d="M0 0 C2.35716404 2.15454249 3.78966144 4.19719874 5.1875 7.0625 C5.53167969 7.75472656 5.87585938 8.44695312 6.23046875 9.16015625 C7 11 7 11 7 13 C6.34 13 5.68 13 5 13 C1.58221513 8.75366122 0.43255525 5.40694067 0 0 Z " fill="#F1BF33" transform="translate(332,92)"/>
<path d="M0 0 C2.31 0 4.62 0 7 0 C4.7991151 2.47859908 2.93627031 3.61210366 -0.1875 4.6875 C-1.26064453 5.06455078 -1.26064453 5.06455078 -2.35546875 5.44921875 C-2.89816406 5.63097656 -3.44085938 5.81273437 -4 6 C-4 5.01 -4 4.02 -4 3 C-2.68 3 -1.36 3 0 3 C0 2.01 0 1.02 0 0 Z " fill="#EDBF29" transform="translate(221,184)"/>
<path d="M0 0 C2.31 0.66 4.62 1.32 7 2 C6.67 2.99 6.34 3.98 6 5 C4.02 5 2.04 5 0 5 C0 3.35 0 1.7 0 0 Z " fill="#F3BB1E" transform="translate(217,97)"/>
<path d="M0 0 C2.31 0 4.62 0 7 0 C7.33 0.99 7.66 1.98 8 3 C8.804375 3.12375 9.60875 3.2475 10.4375 3.375 C11.7059375 3.684375 11.7059375 3.684375 13 4 C13.33 4.66 13.66 5.32 14 6 C9.1008651 4.70022952 4.62440425 3.07626313 0 1 C0 0.67 0 0.34 0 0 Z " fill="#EEC32F" transform="translate(236,60)"/>
<path d="M0 0 C4.61513112 1.31860889 8.09897612 3.21355437 12 6 C10.68 6.33 9.36 6.66 8 7 C8 6.34 8 5.68 8 5 C5.69 4.67 3.38 4.34 1 4 C0.67 2.68 0.34 1.36 0 0 Z " fill="#F5C431" transform="translate(266,28)"/>
<path d="M0 0 C0.99 0.33 1.98 0.66 3 1 C2.34 1 1.68 1 1 1 C1.33 2.65 1.66 4.3 2 6 C2.99 6.33 3.98 6.66 5 7 C4.67 7.66 4.34 8.32 4 9 C1.36 6.69 -1.28 4.38 -4 2 C-3.34 1.67 -2.68 1.34 -2 1 C-1.34 1.33 -0.68 1.66 0 2 C0 1.34 0 0.68 0 0 Z " fill="#F6C426" transform="translate(66,305)"/>
<path d="M0 0 C1.32 0.33 2.64 0.66 4 1 C0.04 4.465 0.04 4.465 -4 8 C-4.33 6.68 -4.66 5.36 -5 4 C-3.68 4 -2.36 4 -1 4 C-0.67 2.68 -0.34 1.36 0 0 Z " fill="#F5C12A" transform="translate(298,307)"/>
<path d="M0 0 C0 3.566745 -0.63691955 4.10543677 -2.9375 6.6875 C-3.48277344 7.31011719 -4.02804687 7.93273437 -4.58984375 8.57421875 C-5.05519531 9.04472656 -5.52054687 9.51523437 -6 10 C-6.33 10 -6.66 10 -7 10 C-7 8.35 -7 6.7 -7 5 C-5.35 4.67 -3.7 4.34 -2 4 C-2 3.01 -2 2.02 -2 1 C-1.34 0.67 -0.68 0.34 0 0 Z " fill="#F4BE29" transform="translate(321,284)"/>
<path d="M0 0 C3.82669043 3.42388092 5.72278474 6.00724943 7 11 C6.34 11 5.68 11 5 11 C2.70351351 8.4385343 2 7.52032428 2 4 C1.34 4 0.68 4 0 4 C0 2.68 0 1.36 0 0 Z " fill="#EDBD2B" transform="translate(259,92)"/>
<path d="M0 0 C1.46067199 0.45082469 2.91848032 0.91093537 4.375 1.375 C5.18710938 1.63023438 5.99921875 1.88546875 6.8359375 2.1484375 C9 3 9 3 11 5 C8.39417629 5.93065133 7.35801776 6.14917407 4.75 5.0625 C3.88375 4.5365625 3.88375 4.5365625 3 4 C3 3.34 3 2.68 3 2 C1.68 1.67 0.36 1.34 -1 1 C-0.67 0.67 -0.34 0.34 0 0 Z " fill="#EFBD27" transform="translate(230,73)"/>
<path d="M0 0 C2.64 0.66 5.28 1.32 8 2 C8.33 3.65 8.66 5.3 9 7 C5.18315774 5.44499019 2.80804268 2.96404505 0 0 Z " fill="#F3C52B" transform="translate(71,314)"/>
<path d="M0 0 C2.475 0.99 2.475 0.99 5 2 C3.25 6.875 3.25 6.875 1 8 C0 2.25 0 2.25 0 0 Z " fill="#F9BE19" transform="translate(324,272)"/>
<path d="M0 0 C5.80205656 5.64524422 5.80205656 5.64524422 8 9 C8 9.66 8 10.32 8 11 C6.68 11.33 5.36 11.66 4 12 C4.0825 11.278125 4.165 10.55625 4.25 9.8125 C3.92544892 6.16130033 2.35451921 4.72241284 0 2 C0 1.34 0 0.68 0 0 Z " fill="#F2BF34" transform="translate(319,73)"/>
<path d="M0 0 C0 0.99 0 1.98 0 3 C-0.66 3 -1.32 3 -2 3 C-2 3.66 -2 4.32 -2 5 C-4.31 5.33 -6.62 5.66 -9 6 C-3.2 0 -3.2 0 0 0 Z " fill="#F6BB26" transform="translate(95,30)"/>
<path d="M0 0 C1.4540625 0.0309375 1.4540625 0.0309375 2.9375 0.0625 C1.9375 2.0625 1.9375 2.0625 0.171875 2.68359375 C-2.20400323 3.08649618 -4.40429517 3.16041478 -6.8125 3.125 C-7.61171875 3.11597656 -8.4109375 3.10695313 -9.234375 3.09765625 C-9.83765625 3.08605469 -10.4409375 3.07445312 -11.0625 3.0625 C-11.0625 2.7325 -11.0625 2.4025 -11.0625 2.0625 C-9.928125 1.918125 -8.79375 1.77375 -7.625 1.625 C-3.97252634 1.04829363 -3.54680005 0.07238367 0 0 Z " fill="#F3B731" transform="translate(207.0625,350.9375)"/>
<path d="M0 0 C1.11126362 3.33379087 0.95133201 5.62709561 0 9 C-0.99 10.485 -0.99 10.485 -2 12 C-2.66 12 -3.32 12 -4 12 C-2.66666667 8 -1.33333333 4 0 0 Z " fill="#EBBF31" transform="translate(257,168)"/>
<path d="M0 0 C2.64 0.33 5.28 0.66 8 1 C7.67 1.99 7.34 2.98 7 4 C4.69 4 2.38 4 0 4 C0 2.68 0 1.36 0 0 Z " fill="#F5B921" transform="translate(200,121)"/>
<path d="M0 0 C2.31 0 4.62 0 7 0 C7 1.65 7 3.3 7 5 C3.34683329 3.75023244 2.21934164 3.32901247 0 0 Z " fill="#F0C21C" transform="translate(237,90)"/>
<path d="M0 0 C1.90318884 2.85478326 2.4619099 4.41941308 3.125 7.6875 C3.29257812 8.49574219 3.46015625 9.30398437 3.6328125 10.13671875 C3.75398438 10.75160156 3.87515625 11.36648437 4 12 C3.01 11.67 2.02 11.34 1 11 C0.67 7.37 0.34 3.74 0 0 Z " fill="#F5CE3C" transform="translate(346,121)"/>
<path d="M0 0 C-1.98 0.33 -3.96 0.66 -6 1 C-6 1.66 -6 2.32 -6 3 C-8.97 2.505 -8.97 2.505 -12 2 C-7.89783794 -0.73477471 -4.73617773 -1.57872591 0 0 Z " fill="#FBC631" transform="translate(143,12)"/>
<path d="M0 0 C0.33 0.99 0.66 1.98 1 3 C-2.4352048 5.29013653 -3.985331 5.17842973 -8 5 C-7.67 4.34 -7.34 3.68 -7 3 C-5.67203709 2.64587656 -4.33783393 2.31478446 -3 2 C-2.01 1.34 -1.02 0.68 0 0 Z " fill="#F4B535" transform="translate(245,222)"/>
<path d="M0 0 C0.33 1.32 0.66 2.64 1 4 C-0.96466413 5.06775224 -2.96855359 6.06553465 -5 7 C-5.66 6.67 -6.32 6.34 -7 6 C-4.69 4.02 -2.38 2.04 0 0 Z " fill="#F6C036" transform="translate(73,44)"/>
<path d="M0 0 C0.33 1.32 0.66 2.64 1 4 C-3.625 7 -3.625 7 -7 7 C-4.69 4.69 -2.38 2.38 0 0 Z " fill="#E7BB2A" transform="translate(226,165)"/>
<path d="M0 0 C1.65 1.65 3.3 3.3 5 5 C4.67 5.66 4.34 6.32 4 7 C2.35 6.67 0.7 6.34 -1 6 C-1 5.34 -1 4.68 -1 4 C-0.34 4 0.32 4 1 4 C0.67 2.68 0.34 1.36 0 0 Z " fill="#EFBD22" transform="translate(235,108)"/>
<path d="M0 0 C2 1 2 1 2 1 Z " fill="#E9D42A" transform="translate(138,206)"/>
<path d="M0 0 C2 1 2 1 2 1 Z " fill="#B4B494" transform="translate(158,204)"/>
<path d="M0 0 C2 1 2 1 2 1 Z " fill="#C2C268" transform="translate(140,204)"/>
<path d="" fill="#FFFF00" transform="translate(0,0)"/>
<path d="" fill="#FFFFFF" transform="translate(0,0)"/>
<path d="" fill="#FF7F7F" transform="translate(0,0)"/>
<path d="" fill="#FFFFFF" transform="translate(0,0)"/>
<path d="" fill="#C6AA71" transform="translate(0,0)"/>
<path d="" fill="#FFFFFF" transform="translate(0,0)"/>
</svg>
