<?xml version="1.0" encoding="UTF-8"?>
<svg version="1.1" xmlns="http://www.w3.org/2000/svg" width="298" height="248">
<path d="M0 0 C35.64 0 71.28 0 108 0 C108 0.66 108 1.32 108 2 C109.32 2 110.64 2 112 2 C112 2.66 112 3.32 112 4 C113.65 4.33 115.3 4.66 117 5 C117 5.66 117 6.32 117 7 C117.59425781 7.26167969 118.18851563 7.52335937 118.80078125 7.79296875 C123.19115693 10.20260656 126.45153897 14.15873799 127.875 18.9375 C127.91625 19.618125 127.9575 20.29875 128 21 C128.66 21 129.32 21 130 21 C133 26.625 133 26.625 133 30 C133.66 30 134.32 30 135 30 C135.33 31.65 135.66 33.3 136 35 C136.66 35 137.32 35 138 35 C141 40.75 141 40.75 141 43 C141.66 43 142.32 43 143 43 C146 48.625 146 48.625 146 52 C146.66 52 147.32 52 148 52 C148.81752303 53.58074564 149.62881997 55.16471223 150.4375 56.75 C150.88996094 57.63171875 151.34242188 58.5134375 151.80859375 59.421875 C152.83455398 61.64198566 153.51508603 63.61444619 154 66 C154.66 66 155.32 66 156 66 C156.26554688 66.54269531 156.53109375 67.08539063 156.8046875 67.64453125 C157.15789062 68.35996094 157.51109375 69.07539062 157.875 69.8125 C158.39707031 70.87404297 158.39707031 70.87404297 158.9296875 71.95703125 C160.0656486 74.21246418 160.0656486 74.21246418 162 77 C162 77.99 162 78.98 162 80 C162.66 80 163.32 80 164 80 C164 80.99 164 81.98 164 83 C164.66 83.33 165.32 83.66 166 84 C166.625 86.0625 166.625 86.0625 167 88 C167.66 88 168.32 88 169 88 C169 89.32 169 90.64 169 92 C169.66 92 170.32 92 171 92 C171.04954711 96.05676492 171.085789 100.11341194 171.10986328 104.17041016 C171.11990253 105.54967315 171.13353677 106.92891496 171.15087891 108.30810547 C171.17521754 110.2938514 171.18543255 112.2797545 171.1953125 114.265625 C171.20578613 115.45961914 171.21625977 116.65361328 171.22705078 117.88378906 C171.01034762 120.85798164 170.56186122 122.50318379 169 125 C168.34 125 167.68 125 167 125 C166.01 127.97 165.02 130.94 164 134 C163.34 134 162.68 134 162 134 C161.67 135.65 161.34 137.3 161 139 C160.34 139 159.68 139 159 139 C159 139.99 159 140.98 159 142 C158.34 142 157.68 142 157 142 C156.88785156 142.72574219 156.77570313 143.45148438 156.66015625 144.19921875 C155.97038613 147.12563993 154.94489186 149.22287809 153.4375 151.8125 C152.98246094 152.60269531 152.52742187 153.39289063 152.05859375 154.20703125 C151.70925781 154.79871094 151.35992187 155.39039063 151 156 C150.34 156 149.68 156 149 156 C148.9175 156.886875 148.835 157.77375 148.75 158.6875 C147.89937172 162.44444156 146.48759896 164.1237137 144 167 C143.67 167.99 143.34 168.98 143 170 C142.34 170 141.68 170 141 170 C140.9175 170.70125 140.835 171.4025 140.75 172.125 C139.82861136 175.65698979 138.07354186 178.01928357 136 181 C135.67 181.99 135.34 182.98 135 184 C134.34 184 133.68 184 133 184 C133 184.99 133 185.98 133 187 C132.34 187 131.68 187 131 187 C130.62875 187.99 130.62875 187.99 130.25 189 C128.68182955 192.76360907 126.85494954 196.3711424 125 200 C124.34 200 123.68 200 123 200 C122.67 201.32 122.34 202.64 122 204 C120.68 204.33 119.36 204.66 118 205 C117.94116135 205.60400131 117.88232269 206.20800262 117.82170105 206.83030701 C117 209 117 209 114.85469055 210.46473694 C103.8378641 215.05345266 93.11485862 214.67391501 81.35546875 214.55859375 C79.1736123 214.55433517 76.9917513 214.55201412 74.80989075 214.55152893 C70.260174 214.54539449 65.71095556 214.52283858 61.16137695 214.48706055 C55.34331707 214.44165638 49.52570498 214.42702511 43.70748425 214.42332363 C39.21122366 214.41888731 34.71505598 214.4035719 30.21883583 214.3844471 C28.07352774 214.37560096 25.92820988 214.3688536 23.78288841 214.36428642 C20.78502251 214.35520072 17.78755246 214.33277575 14.78979492 214.30639648 C13.9132576 214.30573181 13.03672028 214.30506714 12.13362122 214.30438232 C6.77586945 214.239618 2.15115812 213.49123644 -3 212 C-3 211.34 -3 210.68 -3 210 C-4.65 209.67 -6.3 209.34 -8 209 C-8 208.34 -8 207.68 -8 207 C-8.61875 206.690625 -9.2375 206.38125 -9.875 206.0625 C-11.25 205.375 -12.625 204.6875 -14 204 C-14 203.34 -14 202.68 -14 202 C-14.66 202 -15.32 202 -16 202 C-16 201.01 -16 200.02 -16 199 C-16.66 199 -17.32 199 -18 199 C-18.495 196.525 -18.495 196.525 -19 194 C-19.66 194 -20.32 194 -21 194 C-21 193.01 -21 192.02 -21 191 C-21.66 190.67 -22.32 190.34 -23 190 C-23.625 187.9375 -23.625 187.9375 -24 186 C-24.66 186 -25.32 186 -26 186 C-26 185.01 -26 184.02 -26 183 C-26.66 182.67 -27.32 182.34 -28 182 C-29.10103609 180.22293916 -30.13403304 178.40320915 -31.125 176.5625 C-31.66382813 175.57378906 -32.20265625 174.58507812 -32.7578125 173.56640625 C-34 171 -34 171 -34 169 C-34.66 169 -35.32 169 -36 169 C-36.33 167.02 -36.66 165.04 -37 163 C-37.66 163 -38.32 163 -39 163 C-39 162.01 -39 161.02 -39 160 C-39.66 159.67 -40.32 159.34 -41 159 C-42.39787067 156.93814076 -43.71389582 154.87952757 -45 152.75 C-45.35578125 152.17636719 -45.7115625 151.60273438 -46.078125 151.01171875 C-48.06373311 147.75917412 -49.63418639 144.54985658 -51 141 C-51.515625 140.34 -52.03125 139.68 -52.5625 139 C-54.23332631 136.67537209 -54.60987369 134.80890941 -55 132 C-55.66 132 -56.32 132 -57 132 C-59.04169485 129.09451118 -60 127.59857954 -60 124 C-60.66 124 -61.32 124 -62 124 C-63.6635154 118.19089861 -64.31172876 113.02884225 -64.25 107 C-64.25773437 106.24460937 -64.26546875 105.48921875 -64.2734375 104.7109375 C-64.25553883 99.5024251 -63.43389103 95.00723853 -62 90 C-61.34 90 -60.68 90 -60 90 C-60 89.01 -60 88.02 -60 87 C-59.34 87 -58.68 87 -58 87 C-57.67 85.02 -57.34 83.04 -57 81 C-56.34 81 -55.68 81 -55 81 C-54.01 78.03 -53.02 75.06 -52 72 C-51.34 72 -50.68 72 -50 72 C-48.92474806 69.34771188 -47.90543849 66.71631546 -47 64 C-46.34 64 -45.68 64 -45 64 C-44.67 62.35 -44.34 60.7 -44 59 C-43.34 59 -42.68 59 -42 59 C-41.67 57.02 -41.34 55.04 -41 53 C-40.34 53 -39.68 53 -39 53 C-39 52.01 -39 51.02 -39 50 C-38.34 50 -37.68 50 -37 50 C-36.67 48.35 -36.34 46.7 -36 45 C-35.34 45 -34.68 45 -34 45 C-33.67 43.02 -33.34 41.04 -33 39 C-32.34 39 -31.68 39 -31 39 C-31 38.01 -31 37.02 -31 36 C-30.34 36 -29.68 36 -29 36 C-29 35.01 -29 34.02 -29 33 C-28.34 33 -27.68 33 -27 33 C-26.67 31.35 -26.34 29.7 -26 28 C-25.34 28 -24.68 28 -24 28 C-23.85884766 26.94232422 -23.85884766 26.94232422 -23.71484375 25.86328125 C-22.86906963 22.47556303 -21.44986007 20.11859766 -19.5625 17.1875 C-18.94503906 16.21167969 -18.32757813 15.23585938 -17.69140625 14.23046875 C-17.13324219 13.49441406 -16.57507813 12.75835937 -16 12 C-15.34 12 -14.68 12 -14 12 C-13.731875 11.360625 -13.46375 10.72125 -13.1875 10.0625 C-12 8 -12 8 -9 7 C-9 6.34 -9 5.68 -9 5 C-7.35 4.67 -5.7 4.34 -4 4 C-4 3.34 -4 2.68 -4 2 C-2.68 2 -1.36 2 0 2 C0 1.34 0 0.68 0 0 Z M7 36 C7 81.87 7 127.74 7 175 C17.89 175 28.78 175 40 175 C41.21004832 174.01033274 41.21004832 174.01033274 41.12025452 172.09544373 C41.11803391 171.26271439 41.11581329 170.42998505 41.11352539 169.57202148 C41.11344986 168.63112167 41.11337433 167.69022186 41.11329651 166.72080994 C41.10813522 165.69790359 41.10297394 164.67499725 41.09765625 163.62109375 C41.09553383 162.058395 41.09553383 162.058395 41.09336853 160.46412659 C41.0877508 157.12188906 41.0751953 153.77971743 41.0625 150.4375 C41.05748728 148.17773534 41.05292398 145.91796963 41.04882812 143.65820312 C41.03777561 138.10544609 41.02102024 132.55272775 41 127 C41.97588326 127.01227379 41.97588326 127.01227379 42.97148132 127.02479553 C45.96403577 127.05759024 48.95655221 127.07770134 51.94921875 127.09765625 C52.97237183 127.11074829 53.9955249 127.12384033 55.04968262 127.1373291 C69.38771086 127.20886187 81.07158852 124.22966623 91.796875 114.34375 C101.77573377 103.87088832 102.57298761 88.80197718 102.3125 75.15625 C101.79935706 63.3539623 96.83142934 53.46721504 88.4375 45.25 C81.50394255 39.4832114 71.36357928 35.86163852 62.32324219 35.88647461 C60.92307861 35.88665588 60.92307861 35.88665588 59.49462891 35.88684082 C58.03549072 35.89451477 58.03549072 35.89451477 56.546875 35.90234375 C55.64662598 35.90335083 54.74637695 35.90435791 53.81884766 35.90539551 C50.46255211 35.91061942 47.10627475 35.9245807 43.75 35.9375 C32.48875 35.9684375 32.48875 35.9684375 21 36 C21 56.79 21 77.58 21 99 C27.435 99.0825 33.87 99.165 40.5 99.25 C42.51544922 99.28641602 44.53089844 99.32283203 46.60742188 99.36035156 C48.22785379 99.37204801 49.84829758 99.38223757 51.46875 99.390625 C52.70286621 99.4213208 52.70286621 99.4213208 53.96191406 99.45263672 C59.77256875 99.45609956 64.15045873 98.27892882 69 95 C73.41682669 90.24341741 74.0874364 85.28570548 74 79 C73.40778022 73.76113272 71.82937594 69.7199652 68 66 C64.0399314 64.00409412 60.79000869 63.76447481 56.38671875 63.8046875 C55.13955078 63.81113281 53.89238281 63.81757812 52.60742188 63.82421875 C51.31384766 63.84097656 50.02027344 63.85773438 48.6875 63.875 C47.37458984 63.88402344 46.06167969 63.89304687 44.70898438 63.90234375 C41.47257813 63.92588125 38.23626581 63.96175129 35 64 C35 71.26 35 78.52 35 86 C36.98 86 38.96 86 41 86 C42.44207941 83.11584117 42.09394887 80.58278472 42.0625 77.375 C42.05347656 76.18648437 42.04445312 74.99796875 42.03515625 73.7734375 C42.02355469 72.85820313 42.01195312 71.94296875 42 71 C45.24969769 70.88361964 48.4988583 70.81269419 51.75 70.75 C52.67039063 70.71648437 53.59078125 70.68296875 54.5390625 70.6484375 C61.33402128 70.54995984 61.33402128 70.54995984 64.578125 72.7421875 C66.88471623 76.40485159 67.31204893 79.71304205 67 84 C65.36565673 87.45726461 64.22352954 89.36747321 60.8059082 91.13427734 C57.36972631 92.19446189 54.32563598 92.32529294 50.73046875 92.4140625 C49.48418701 92.44967285 48.23790527 92.4852832 46.95385742 92.52197266 C45.38095947 92.55597168 43.80806152 92.5899707 42.1875 92.625 C34.6696875 92.810625 34.6696875 92.810625 27 93 C27 76.17 27 59.34 27 42 C35.0128125 42.1546875 35.0128125 42.1546875 43.1875 42.3125 C44.84418701 42.33739502 46.50087402 42.36229004 48.20776367 42.38793945 C61.02801575 42.65811011 74.74196512 43.56674181 84.75 52.4375 C85.4925 53.283125 86.235 54.12875 87 55 C87.70125 55.763125 88.4025 56.52625 89.125 57.3125 C95.60196176 66.59614519 95.76573163 78.06405817 95 89 C93.17701176 98.56287547 89.61675942 105.50801786 82.6875 112.25 C74.92499928 117.30465163 67.71640073 119.05970197 58.51171875 119.31640625 C57.22483154 119.35451416 55.93794434 119.39262207 54.61206055 119.43188477 C52.98695557 119.47498779 51.36185059 119.51809082 49.6875 119.5625 C41.9221875 119.7790625 41.9221875 119.7790625 34 120 C34 135.51 34 151.02 34 167 C24.1 167.495 24.1 167.495 14 168 C14 124.44 14 80.88 14 36 C11.69 36 9.38 36 7 36 Z M35 50 C35 51.98 35 53.96 35 56 C36.20946289 56.02187378 36.20946289 56.02187378 37.44335938 56.04418945 C41.12936622 56.11908462 44.81450837 56.2156096 48.5 56.3125 C49.7684375 56.33505859 51.036875 56.35761719 52.34375 56.38085938 C61.04588056 56.63013916 68.93397837 57.1676932 75.6796875 63.37890625 C80.77351776 69.63316529 81.65422483 77.04743517 81.38671875 84.87890625 C80.64216322 90.8879958 78.44522256 95.15332672 74.75 99.875 C67.52506956 105.4579008 59.03601216 106.13324867 50.19921875 106.31640625 C49.45724243 106.33505737 48.71526611 106.3537085 47.95080566 106.3729248 C45.19648399 106.44088585 42.44197905 106.50124865 39.6875 106.5625 C33.520625 106.706875 27.35375 106.85125 21 107 C21 125.48 21 143.96 21 163 C22.98 163 24.96 163 27 163 C27 146.5 27 130 27 113 C44.3125 113.25 44.3125 113.25 49.7043457 113.36035156 C60.98890477 113.49405101 70.87507131 112.38684703 80 105 C86.6870094 98.15747875 89 90.44394491 89 81 C88.1371608 69.79657227 85.88505414 62.11265052 77.48828125 54.54296875 C68.8424169 49.18171849 59.7529264 49.63436362 49.9375 49.8125 C48.48503995 49.82757744 47.03256473 49.84126042 45.58007812 49.85351562 C42.05306543 49.88627139 38.52663215 49.93788336 35 50 Z " fill="#FEB42D" transform="translate(95,16)"/>
<path d="" fill="#FFF6D5" transform="translate(0,0)"/>
<path d="" fill="#FFFADC" transform="translate(0,0)"/>
<path d="" fill="#FF9015" transform="translate(0,0)"/>
<path d="" fill="#FFF5D5" transform="translate(0,0)"/>
<path d="" fill="#FFF8D5" transform="translate(0,0)"/>
<path d="" fill="#FCC5B0" transform="translate(0,0)"/>
<path d="" fill="#FFC629" transform="translate(0,0)"/>
<path d="" fill="#FFC629" transform="translate(0,0)"/>
</svg>
